<svg xmlns="http://www.w3.org/2000/svg" viewBox="0 0 512 512">
  <rect width="512" height="512" rx="64" fill="#2c2418"/>
  <!-- Roof -->
  <polygon points="256,80 100,220 412,220" fill="#8b7355"/>
  <!-- Chimney -->
  <rect x="330" y="100" width="36" height="90" fill="#6b5b45"/>
  <!-- Wall -->
  <rect x="130" y="220" width="252" height="200" fill="#a89272"/>
  <!-- Stone lines -->
  <line x1="130" y1="260" x2="382" y2="260" stroke="#8b7355" stroke-width="2"/>
  <line x1="130" y1="300" x2="382" y2="300" stroke="#8b7355" stroke-width="2"/>
  <line x1="130" y1="340" x2="382" y2="340" stroke="#8b7355" stroke-width="2"/>
  <line x1="130" y1="380" x2="382" y2="380" stroke="#8b7355" stroke-width="2"/>
  <!-- Door -->
  <rect x="226" y="310" width="60" height="110" rx="30" fill="#2c2418"/>
  <!-- Windows -->
  <rect x="155" y="260" width="50" height="50" rx="4" fill="#d4c5a0" stroke="#2c2418" stroke-width="3"/>
  <line x1="180" y1="260" x2="180" y2="310" stroke="#2c2418" stroke-width="2"/>
  <line x1="155" y1="285" x2="205" y2="285" stroke="#2c2418" stroke-width="2"/>
  <rect x="307" y="260" width="50" height="50" rx="4" fill="#d4c5a0" stroke="#2c2418" stroke-width="3"/>
  <line x1="332" y1="260" x2="332" y2="310" stroke="#2c2418" stroke-width="2"/>
  <line x1="307" y1="285" x2="357" y2="285" stroke="#2c2418" stroke-width="2"/>
</svg>
